PathFileType	3	(X/Y/Z)	D:\Vicon Setup\UG\Test1\New Session\NewSession12.trc
DataRate	CameraRate	NumFrames	NumMarkers	Units	OrigDataRate	OrigDataStartFrame	OrigNumFrames
100.0	100.0	6	27	mm	100.0	473	351	
Frame#	Time	Sternum			LShoulder			RShoulder			LASIS			RASIS			RPSIS			LPSIS			RKneeLateral			RKneeMedial			RFibulaHead			RMidShank			RAnkleLateral			RAnkleMedial			RHeel			RMT5			RMT2			RToe			LKneeLateral			LKneeMedial			LFibulaHead			LMidShank			LAnkleLateral			LAnkleMedial			LHeel			LMT5			LMT2			LToe			
		X1	Y1	Z1	X2	Y2	Z2	X3	Y3	Z3	X4	Y4	Z4	X5	Y5	Z5	X6	Y6	Z6	X7	Y7	Z7	X8	Y8	Z8	X9	Y9	Z9	X10	Y10	Z10	X11	Y11	Z11	X12	Y12	Z12	X13	Y13	Z13	X14	Y14	Z14	X15	Y15	Z15	X16	Y16	Z16	X17	Y17	Z17	X18	Y18	Z18	X19	Y19	Z19	X20	Y20	Z20	X21	Y21	Z21	X22	Y22	Z22	X23	Y23	Z23	X24	Y24	Z24	X25	Y25	Z25	X26	Y26	Z26	X27	Y27	Z27	
473	4.72	-239.3609	1352.6874	-162.77048	-428.40228	1413.5184	-62.495781	-55.303955	1397.1122	-85.10894	-351.17804	981.92169	-118.99562	-93.36451	981.09851	-106.69247	-173.31685	995.85529	63.131832	-304.1221	996.84265	63.307701	-50.053196	510.15448	-39.503273	-173.32401	472.50558	-85.545898	-43.659592	450.80832	0.51221448	-132.86304	320.2493	94.420593	-98.992516	249.23912	289.6644	-162.46181	208.71423	229.33559	-175.33389	294.86108	314.68597	-52.473568	91.033699	319.74088	-107.46173	92.125977	267.0307	-101.40157	51.819324	261.85861	-381.2673	513.31659	-184.87314	-252.52933	503.71402	-204.66124	-384.24274	448.78653	-179.74866	-296.57303	299.48413	-213.36819	-344.42792	95.355103	-160.82253	-260.58484	116.56747	-196.61313	-285.38907	63.858479	-89.472862	-382.8761	41.792671	-295.85587	-319.64935	63.350304	-311.52588			
474	4.73	-240.11163	1355.4142	-177.55138	-429.37802	1415.8602	-77.503273	-56.245743	1398.8955	-98.653008	-352.35223	984.08667	-134.02296	-94.569572	983.71619	-120.5153	-175.55118	997.63379	48.9156	-306.32394	998.87115	48.031921	-51.170982	512.59912	-66.435272	-174.09497	476.33032	-111.33698	-44.818081	453.40298	-26.365845	-134.8264	324.55081	65.740898	-101.69323	253.83156	262.98853	-165.19986	213.92578	201.89264	-178.4127	296.0502	291.83743	-49.418865	95.955276	283.74841	-106.23474	97.462631	233.04907	-99.249092	56.919678	226.28691	-381.32727	513.65289	-192.55751	-252.38121	504.04309	-209.9238	-384.16394	449.0556	-186.07031	-296.45132	299.34198	-217.61612	-343.59247	95.581612	-161.95457	-259.85764	116.57829	-197.64517	-285.09103	64.369354	-89.764168	-382.7002	41.677185	-296.09241	-319.42627	62.683971	-312.24823			
475	4.74	-240.7518	1358.0388	-192.19164	-430.62366	1418.4849	-92.44902	-56.89275	1400.7095	-112.62666	-353.47525	986.3114	-148.87129	-96.004082	986.59686	-134.55722	-177.62518	999.8067	34.678181	-308.40787	1001.456	34.03368	-52.19231	515.31091	-93.257965	-174.94037	480.32812	-137.49542	-46.028858	455.94144	-53.865047	-136.28455	326.99127	41.267647	-103.70088	256.47864	234.53879	-167.60178	217.86206	173.04456	-180.20418	295.74896	267.40909	-47.506603	98.895645	245.5648	-105.72437	101.52078	197.69817	-98.002357	61.052979	188.98351	-381.24136	514.07941	-200.6543	-252.07973	504.6795	-214.30576	-384.14636	449.50565	-192.93802	-295.83673	299.25656	-221.00354	-343.43124	96.081535	-162.76305	-259.42218	116.74458	-198.50175	-284.88577	64.856606	-90.048119	-382.62347	41.565411	-296.30881	-319.30377	62.222908	-312.76715			
476	4.75	-241.34972	1360.4762	-206.68788	-431.68774	1421.1182	-107.48319	-57.677063	1402.6377	-126.34487	-354.66306	988.45337	-163.77811	-97.010567	989.4411	-147.93846	-179.55884	1002.2853	20.54389	-310.32062	1004.0214	19.458168	-53.215244	518.32635	-119.57047	-175.72128	484.44189	-164.12361	-47.638908	459.03796	-81.146255	-138.21846	330.20877	8.8570223	-105.03959	257.15796	204.89708	-169.18379	220.06506	142.87941	-181.28593	293.88425	241.15846	-46.387398	100.47121	207.85129	-105.65865	103.83064	161.9971	-97.528328	63.945225	150.80711	-381.12173	514.34766	-208.69849	-251.80936	505.14423	-218.79797	-383.96463	449.76675	-200.00116	-294.92825	299.2106	-223.78783	-343.25204	96.670006	-163.56407	-259.09198	116.96474	-199.32529	-284.59357	65.368629	-90.262276	-382.56012	41.487629	-296.48123	-319.20154	61.903774	-313.18469			
477	4.76	-241.87006	1362.7446	-220.9854	-432.17725	1423.6141	-122.42487	-58.518543	1404.5682	-139.77136	-355.74228	990.70905	-178.33113	-98.162712	992.28247	-161.37595	-181.37515	1004.8696	6.4884381	-312.11487	1006.7071	5.0014119	-54.384956	521.60651	-145.50195	-176.6835	488.4267	-191.37109	-49.030266	462.26468	-108.79351	-139.0118	331.56586	-20.747265	-106.25236	255.74515	174.4063	-170.2674	220.57745	111.59198	-182.35616	290.54263	213.33009	-46.009758	100.17715	170.37883	-105.36572	105.05158	124.91555	-97.207642	65.393707	112.56177	-381.04306	514.30707	-216.13258	-251.5434	505.00925	-224.42755	-383.76669	449.95682	-206.64801	-294.11011	299.17493	-226.49722	-342.79568	97.200417	-164.43204	-258.53528	117.18786	-200.25397	-284.21252	65.996696	-90.632431	-382.44165	41.483402	-296.63367	-319.08865	61.642353	-313.59152			
478	4.77	-242.23477	1364.9313	-235.1207	-432.90323	1426.2372	-137.43358	-59.001888	1406.526	-153.47394	-356.68329	992.65454	-192.70013	-99.402641	995.16656	-174.95824	-183.11516	1007.4598	-7.427866	-313.81	1009.3694	-9.4357967	-55.58276	525.08136	-171.22624	-177.58148	492.44522	-218.71594	-50.105492	465.60181	-136.82645	-139.76634	332.13275	-50.078167	-107.4086	252.80818	143.73651	-171.14015	219.95287	79.470314	-183.53366	285.80261	184.34839	-45.985458	98.32666	134.05746	-105.63892	104.8922	88.076935	-97.134926	66.158043	73.447235	-380.81387	514.34753	-222.85997	-250.86147	504.96423	-229.22525	-383.44751	450.16122	-212.47682	-293.6503	299.11786	-229.66656	-342.37735	97.83284	-165.21519	-258.24164	117.49117	-201.21896	-283.98645	66.753235	-90.812492	-382.32645	41.5154	-296.77563	-318.99033	61.367393	-314.03116			
